<?xml version="1.0" encoding="UTF-8" standalone="no"?>
<svg
   width="168"
   height="154"
   viewBox="0 0 168 154"
   fill="none"
   version="1.1"
   id="svg1"
   sodipodi:docname="category_2.svg"
   inkscape:version="1.3 (0e150ed6c4, 2023-07-21)"
   xmlns:inkscape="http://www.inkscape.org/namespaces/inkscape"
   xmlns:sodipodi="http://sodipodi.sourceforge.net/DTD/sodipodi-0.dtd"
   xmlns="http://www.w3.org/2000/svg"
   xmlns:svg="http://www.w3.org/2000/svg">
  <defs
     id="defs1" />
  <sodipodi:namedview
     id="namedview1"
     pagecolor="#505050"
     bordercolor="#ffffff"
     borderopacity="1"
     inkscape:showpageshadow="0"
     inkscape:pageopacity="0"
     inkscape:pagecheckerboard="1"
     inkscape:deskcolor="#505050"
     inkscape:zoom="2.797619"
     inkscape:cx="84"
     inkscape:cy="77.029787"
     inkscape:window-width="1366"
     inkscape:window-height="705"
     inkscape:window-x="-8"
     inkscape:window-y="-8"
     inkscape:window-maximized="1"
     inkscape:current-layer="svg1" />
  <g
     id="svg"
     transform="translate(-23.234043,-28.238298)">
    <path
       id="Rectangle 158"
       d="m 47.8052,72.9999 c 0,9.9412 8.0588,18 18,18 h 27 c 2.7614,0 5,-2.2385 5,-5 v -34 c 0,-5.5228 -4.4772,-10 -10,-10 h -35 c -2.7615,0 -5,2.2386 -5,5 z"
       fill="#fff1da" />
    <g
       id="plane">
      <g
         id="Group">
        <path
           id="Vector"
           d="m 96.3891,86.9413 c -1.3584,0.3043 -2.6814,0.8678 -3.8869,1.6552 -3.1408,2.0013 -4.9681,4.8581 -4.0812,6.3802 0.887,1.5221 4.1521,1.1328 7.2928,-0.8685 1.2218,-0.7596 2.3072,-1.7303 3.1894,-2.8523 0.4093,-0.5421 0.4828,-1.2176 0.1876,-1.7225 L 97.9386,87.556 c -0.2932,-0.5065 -0.9012,-0.7474 -1.5495,-0.6147 z"
           fill="#d5d6db" />
        <path
           id="Vector_2"
           d="m 88.5021,59.9482 c -0.985,0.2208 -1.9444,0.6296 -2.8187,1.2006 -2.2768,1.4508 -3.6026,3.5222 -2.96,4.625 0.6426,1.1028 3.0111,0.8203 5.2877,-0.6304 0.8859,-0.5511 1.6728,-1.2553 2.3126,-2.069 0.2965,-0.3929 0.3496,-0.8822 0.1356,-1.2483 l -0.8342,-1.4318 c -0.2123,-0.3672 -0.6529,-0.5422 -1.123,-0.4461 z"
           fill="#d5d6db" />
        <path
           id="Vector_3"
           d="m 75.688,61.0787 c -0.2193,-0.0245 -0.4531,0.0339 -0.6558,0.1634 l -5.3482,3.4082 c -0.4474,0.2843 -0.6264,0.8316 -0.3995,1.2228 0.0519,0.0896 0.123,0.1662 0.2092,0.2252 l 13.1816,9.0849 17.8337,-11.3647 z"
           fill="#029bc5" />
        <path
           id="Vector_4"
           d="m 132.065,59.794 -48.5321,30.5521 -28.7128,11.4259 -14.6431,2.91 -1.611,-2.737 80.895,-49.9465 c 2.411,-1.4949 5.097,-2.4125 7.785,-2.6596 1.178,-0.1019 2.341,-0.0627 3.462,0.1161 0.994,0.1507 1.937,0.4414 2.8,0.8635 0.964,0.4782 2.799,0.5334 3.393,1.4862 0.002,-0.0015 1.404,4.3729 -4.836,7.9893 z"
           fill="#e1e6e9" />
        <path
           id="Vector_5"
           d="M 84.1762,86.3036 63.1809,119.774 c -0.2622,0.47 -0.1065,0.996 0.3474,1.175 0.2785,0.11 0.6194,0.067 0.9058,-0.115 l 5.344,-3.39 c 1.0279,-0.653 1.938,-1.481 2.6742,-2.435 L 113.169,67.1404 Z"
           fill="#029bc5" />
        <path
           id="Vector_6"
           d="m 31.1966,85.1861 c -0.3502,-0.1197 -0.767,-0.0576 -1.1188,0.1664 l -4.4175,2.8134 c -0.6019,0.3831 -0.8418,1.1195 -0.5359,1.6452 0.0583,0.0999 0.134,0.1879 0.2247,0.2603 l 12.3768,9.9124 13.013,-8.1281 z"
           fill="#029bc5" />
        <path
           id="Vector_7"
           d="m 41.8743,101.771 -6.6615,9.329 c -0.0976,0.134 -0.0747,0.303 0.0513,0.376 0.0908,0.053 0.2148,0.043 0.3156,-0.024 l 4.1283,-2.616 c 0.032,-0.021 0.0611,-0.046 0.0851,-0.075 l 9.7335,-11.8349 z"
           fill="#029bc5" />
        <path
           id="Vector_8"
           d="m 129.911,49.8572 c -1.154,-0.1854 -2.352,-0.225 -3.565,-0.1184 -1.181,1.6511 -1.935,3.5058 -2.189,5.3792 -0.018,0.3763 0.285,0.6472 0.678,0.605 0.122,-0.0132 0.244,-0.0561 0.353,-0.1249 l 7.608,-4.8443 c -0.89,-0.4386 -1.861,-0.7404 -2.885,-0.8966 z"
           fill="#029bc5" />
        <path
           id="Vector_9"
           d="m 113.332,58.7653 4.967,-3.1369 4.627,7.869 -4.967,3.1369 z"
           fill="#d5d6db" />
        <g
           id="Group_2">
          <path
             id="Vector_10"
             d="m 110.207,61.8775 c -0.599,0.3792 -0.838,1.108 -0.534,1.6277 l 0.492,0.842 c 0.324,0.5064 1.063,0.5955 1.651,0.1988 0.56,-0.3778 0.786,-1.0645 0.516,-1.5715 l -0.492,-0.842 c -0.304,-0.5193 -1.035,-0.6335 -1.633,-0.255 z"
             fill="#3a556a" />
          <path
             id="Vector_11"
             d="m 105.742,64.65 c -0.598,0.3791 -0.838,1.1079 -0.534,1.6277 l 0.493,0.8419 c 0.324,0.5065 1.063,0.5956 1.651,0.1989 0.56,-0.3778 0.785,-1.0645 0.516,-1.5715 l -0.493,-0.842 c -0.304,-0.5191 -1.034,-0.6334 -1.633,-0.255 z"
             fill="#3a556a" />
          <path
             id="Vector_12"
             d="m 101.276,67.4233 c -0.597,0.3797 -0.836,1.1076 -0.532,1.6268 l 0.492,0.842 c 0.324,0.5065 1.063,0.5955 1.651,0.1988 0.56,-0.3778 0.786,-1.0644 0.516,-1.5714 l -0.492,-0.842 c -0.304,-0.5197 -1.036,-0.6335 -1.635,-0.2542 z"
             fill="#3a556a" />
          <path
             id="Vector_13"
             d="m 96.8121,70.1957 c -0.5979,0.3797 -0.8363,1.1076 -0.5327,1.6269 l 0.4923,0.842 c 0.3239,0.5064 1.0631,0.5955 1.6514,0.1988 0.5598,-0.3778 0.7853,-1.0645 0.5155,-1.5715 l -0.4923,-0.842 c -0.3041,-0.5195 -1.0357,-0.6333 -1.6342,-0.2542 z"
             fill="#3a556a" />
          <path
             id="Vector_14"
             d="m 92.3481,72.9684 c -0.5982,0.3798 -0.8368,1.108 -0.533,1.6275 l 0.4926,0.8424 c 0.3037,0.5192 1.035,0.6329 1.6333,0.254 0.5984,-0.379 0.8373,-1.1072 0.5336,-1.6265 L 93.982,73.2235 c -0.3029,-0.5198 -1.0339,-0.6343 -1.6326,-0.2559 -5e-4,3e-4 -8e-4,5e-4 -0.0013,8e-4 z"
             fill="#3a556a" />
          <path
             id="Vector_15"
             d="m 87.8837,75.7408 c -0.5982,0.3799 -0.8367,1.1081 -0.5329,1.6276 l 0.4926,0.8423 c 0.3036,0.5193 1.0349,0.633 1.6333,0.254 0.5983,-0.379 0.8372,-1.1072 0.5336,-1.6264 L 89.5177,75.9959 C 89.2148,75.4762 88.4838,75.3617 87.885,75.74 c -5e-4,4e-4 -0.001,7e-4 -0.0013,8e-4 z"
             fill="#3a556a" />
          <path
             id="Vector_16"
             d="m 83.4191,78.5134 c -0.5982,0.3798 -0.8367,1.108 -0.5329,1.6275 l 0.4926,0.8423 c 0.3044,0.5188 1.036,0.6313 1.6337,0.2519 0.5967,-0.3789 0.8351,-1.1055 0.5329,-1.6242 L 85.0528,78.7686 C 84.7492,78.249 84.018,78.1347 83.4191,78.5134 Z"
             fill="#3a556a" />
          <path
             id="Vector_17"
             d="m 78.9545,81.2859 c -0.5982,0.3798 -0.8367,1.108 -0.5329,1.6275 l 0.4926,0.8424 c 0.3044,0.5188 1.036,0.6313 1.6337,0.2518 0.5967,-0.3788 0.8351,-1.1055 0.5329,-1.6241 l -0.4926,-0.8424 c -0.3036,-0.5196 -1.0348,-0.6339 -1.6337,-0.2552 z"
             fill="#3a556a" />
          <path
             id="Vector_18"
             d="m 74.4903,84.0583 c -0.5982,0.3798 -0.8368,1.108 -0.533,1.6275 l 0.4926,0.8423 c 0.3044,0.5188 1.0361,0.6314 1.6338,0.2519 0.5967,-0.3789 0.8351,-1.1055 0.5328,-1.6241 l -0.4926,-0.8423 c -0.3038,-0.5195 -1.035,-0.6338 -1.6336,-0.2553 z"
             fill="#3a556a" />
          <path
             id="Vector_19"
             d="m 70.0245,86.8315 c -0.5984,0.379 -0.8373,1.1072 -0.5336,1.6265 l 6e-4,0.0011 0.4926,0.8423 c 0.3044,0.5188 1.036,0.6314 1.6338,0.2519 0.5967,-0.3789 0.8351,-1.1055 0.5328,-1.6242 l -0.4926,-0.8423 c -0.3035,-0.5197 -1.0348,-0.634 -1.6336,-0.2553 z"
             fill="#3a556a" />
          <path
             id="Vector_20"
             d="m 65.5612,89.6032 c -0.5983,0.379 -0.8372,1.1072 -0.5336,1.6264 l 7e-4,0.0011 0.4926,0.8423 c 0.3044,0.5188 1.036,0.6314 1.6337,0.2519 0.5968,-0.3788 0.8352,-1.1055 0.5329,-1.6241 l -0.4926,-0.8423 c -0.3038,-0.5195 -1.035,-0.6338 -1.6337,-0.2553 z"
             fill="#3a556a" />
        </g>
      </g>
    </g>
  </g>
</svg>
