<?xml version="1.0" encoding="UTF-8" standalone="no"?>
<svg
   width="61"
   height="61"
   viewBox="0 0 61 61"
   fill="none"
   version="1.1"
   id="svg3"
   sodipodi:docname="instagram.svg"
   inkscape:version="1.3 (0e150ed6c4, 2023-07-21)"
   xmlns:inkscape="http://www.inkscape.org/namespaces/inkscape"
   xmlns:sodipodi="http://sodipodi.sourceforge.net/DTD/sodipodi-0.dtd"
   xmlns="http://www.w3.org/2000/svg"
   xmlns:svg="http://www.w3.org/2000/svg">
  <sodipodi:namedview
     id="namedview3"
     pagecolor="#505050"
     bordercolor="#ffffff"
     borderopacity="1"
     inkscape:showpageshadow="0"
     inkscape:pageopacity="0"
     inkscape:pagecheckerboard="1"
     inkscape:deskcolor="#505050"
     inkscape:zoom="7.704918"
     inkscape:cx="30.5"
     inkscape:cy="30.435106"
     inkscape:window-width="1366"
     inkscape:window-height="705"
     inkscape:window-x="-8"
     inkscape:window-y="-8"
     inkscape:window-maximized="1"
     inkscape:current-layer="Social" />
  <g
     id="svg">
    <g
       id="Background"
       filter="url(#filter0_d_108_74)">
      <path
         fill-rule="evenodd"
         clip-rule="evenodd"
         d="M30.5 49C41.8218 49 51 39.8218 51 28.5C51 17.1782 41.8218 8 30.5 8C19.1782 8 10 17.1782 10 28.5C10 39.8218 19.1782 49 30.5 49Z"
         fill="white"
         id="path1" />
    </g>
    <g
       id="instagram 1"
       clip-path="url(#clip0_1_511)"
       transform="matrix(1.1784574,0,0,1.1784574,21.042553,21.144681)"
       style="fill:#080809;fill-opacity:1">
      <g
         id="Group"
         style="fill:#080809;fill-opacity:1">
        <g
           id="Group_2"
           style="fill:#080809;fill-opacity:1">
          <path
             id="Vector"
             d="M 13.6562,0 H 2.34375 C 1.05156,0 0,1.05156 0,2.34375 V 13.6562 C 0,14.9487 1.05156,16 2.34375,16 H 13.6562 C 14.9487,16 16,14.9487 16,13.6562 V 2.34375 C 16,1.05156 14.9487,0 13.6562,0 Z m 1.4063,13.6562 c 0,0.7754 -0.6309,1.4063 -1.4063,1.4063 H 2.34375 c -0.77531,0 -1.40625,-0.6309 -1.40625,-1.4063 V 2.34375 C 0.9375,1.56844 1.56844,0.9375 2.34375,0.9375 H 13.6562 c 0.7754,0 1.4063,0.63094 1.4063,1.40625 z"
             fill="#ffffff"
             style="fill:#080809;fill-opacity:1" />
        </g>
        <g
           id="Group_3"
           style="fill:#080809;fill-opacity:1">
          <path
             id="Vector_2"
             d="m 13.1562,1.90625 c -0.5168,0 -0.9374,0.42062 -0.9374,0.9375 0,0.51688 0.4206,0.9375 0.9374,0.9375 0.5169,0 0.9376,-0.42062 0.9376,-0.9375 0,-0.51688 -0.4207,-0.9375 -0.9376,-0.9375 z"
             fill="#ffffff"
             style="fill:#080809;fill-opacity:1" />
        </g>
        <g
           id="Group_4"
           style="fill:#080809;fill-opacity:1">
          <path
             id="Vector_3"
             d="m 8,3.78125 c -2.32625,0 -4.21875,1.8925 -4.21875,4.21875 0,2.3263 1.8925,4.2188 4.21875,4.2188 2.3263,0 4.2188,-1.8925 4.2188,-4.2188 C 12.2188,5.67375 10.3263,3.78125 8,3.78125 Z M 8,11.2812 C 6.19062,11.2812 4.71875,9.80937 4.71875,8 4.71875,6.19062 6.19062,4.71875 8,4.71875 c 1.80937,0 3.2812,1.47187 3.2812,3.28125 0,1.80937 -1.47183,3.2812 -3.2812,3.2812 z"
             fill="#ffffff"
             style="fill:#080809;fill-opacity:1" />
        </g>
      </g>
    </g>
  </g>
  <defs
     id="defs3">
    <filter
       id="filter0_d_108_74"
       x="0"
       y="0"
       width="61"
       height="61"
       filterUnits="userSpaceOnUse"
       color-interpolation-filters="sRGB">
      <feFlood
         flood-opacity="0"
         result="BackgroundImageFix"
         id="feFlood1" />
      <feColorMatrix
         in="SourceAlpha"
         type="matrix"
         values="0 0 0 0 0 0 0 0 0 0 0 0 0 0 0 0 0 0 127 0"
         result="hardAlpha"
         id="feColorMatrix1" />
      <feOffset
         dy="2"
         id="feOffset1" />
      <feGaussianBlur
         stdDeviation="5"
         id="feGaussianBlur1" />
      <feColorMatrix
         type="matrix"
         values="0 0 0 0 0 0 0 0 0 0 0 0 0 0 0 0 0 0 0.1 0"
         id="feColorMatrix2" />
      <feBlend
         mode="normal"
         in2="BackgroundImageFix"
         result="effect1_dropShadow_108_74"
         id="feBlend2" />
      <feBlend
         mode="normal"
         in="SourceGraphic"
         in2="effect1_dropShadow_108_74"
         result="shape"
         id="feBlend3" />
    </filter>
    <clipPath
       id="clip0_1_511">
      <rect
         width="16"
         height="16"
         fill="#ffffff"
         id="rect1"
         x="0"
         y="0" />
    </clipPath>
  </defs>
</svg>
