<?xml version="1.0" encoding="UTF-8" standalone="no"?>
<svg
   width="70"
   height="70"
   viewBox="0 0 70 70"
   fill="none"
   version="1.1"
   id="svg"
   sodipodi:docname="sub_nav.svg"
   inkscape:version="1.3 (0e150ed6c4, 2023-07-21)"
   xmlns:inkscape="http://www.inkscape.org/namespaces/inkscape"
   xmlns:sodipodi="http://sodipodi.sourceforge.net/DTD/sodipodi-0.dtd"
   xmlns="http://www.w3.org/2000/svg"
   xmlns:svg="http://www.w3.org/2000/svg">
  <g id="svg">
  <sodipodi:namedview
     id="namedview6"
     pagecolor="#505050"
     bordercolor="#ffffff"
     borderopacity="1"
     inkscape:showpageshadow="0"
     inkscape:pageopacity="0"
     inkscape:pagecheckerboard="1"
     inkscape:deskcolor="#505050"
     inkscape:zoom="6.7142857"
     inkscape:cx="35"
     inkscape:cy="34.925532"
     inkscape:window-width="1366"
     inkscape:window-height="705"
     inkscape:window-x="-8"
     inkscape:window-y="-8"
     inkscape:window-maximized="1"
     inkscape:current-layer="svg6" />
  <circle
     id="Ellipse 31"
     cx="35"
     cy="35"
     r="35"
     fill="url(#paint0_linear_1_489)"
     style="display:inline" />
  <path
     id="Vector"
     d="m 52.6105,23.9904 c 0.6913,1.1974 0.5987,2.6232 -0.2428,3.7206 L 33.8939,51.8182 c -0.7618,0.9941 -2.0163,1.5009 -3.2991,1.2547 -1.2561,-0.2416 -2.2521,-1.1573 -2.5978,-2.3888 l -2.7335,-9.7286 -0.2846,-1.012 -0.734,-0.7525 -7.0585,-7.2315 c -0.8937,-0.9151 -1.1887,-2.2355 -0.7698,-3.4441 0.4145,-1.1948 1.4542,-2.0618 2.7361,-2.2298 L 49.267,22.3404 c 1.3711,-0.18 2.6522,0.4526 3.3435,1.65 z"
     fill="#ffffff"
     style="display:inline" />
  <path
     id="Vector_2"
     d="m 25.2636,40.9555 2.7334,9.7286 c 0.3457,1.2316 1.3416,2.1472 2.5978,2.3888 1.2828,0.2463 2.5373,-0.2605 3.2991,-1.2547 L 52.3677,27.7111 c 0.8415,-1.0974 0.9341,-2.5232 0.2428,-3.7206 L 24.9789,39.9436 Z"
     fill="#ffffff"
     style="display:inline" />
  <path
     id="Vector_3"
     d="m 36.2231,33.4515 c 0.2812,0.487 0.1148,1.1101 -0.3728,1.3916 l -10.5867,6.1122 -0.2847,-1.0119 -0.734,-0.7525 10.5867,-6.1122 c 0.4876,-0.2814 1.1104,-0.1141 1.3915,0.3728 z"
     fill="url(#paint1_linear_1_489)"
     style="display:inline" />
  <path
     id="Vector_4"
     d="m 25.2637,40.9554 10.5867,-6.1122 c 0.4876,-0.2815 0.6541,-0.9045 0.3729,-1.3915 L 24.979,39.9435 Z"
     fill="url(#paint2_linear_1_489)"
     style="display:inline" />
  <defs
     id="defs6">
    <linearGradient
       id="paint0_linear_1_489"
       x1="49.6467"
       y1="1.96393"
       x2="19.564"
       y2="77.7643"
       gradientUnits="userSpaceOnUse">
      <stop
         stop-color="#747DEF"
         id="stop1" />
      <stop
         offset="1"
         stop-color="#5E3BE1"
         id="stop2" />
    </linearGradient>
    <linearGradient
       id="paint1_linear_1_489"
       x1="32.4077"
       y1="34.5441"
       x2="33.5452"
       y2="36.8251"
       gradientUnits="userSpaceOnUse">
      <stop
         stop-color="#747DEF"
         id="stop3" />
      <stop
         offset="1"
         stop-color="#5E3BE1"
         id="stop4" />
    </linearGradient>
    <linearGradient
       id="paint2_linear_1_489"
       x1="32.9029"
       y1="35.4017"
       x2="33.507"
       y2="36.5259"
       gradientUnits="userSpaceOnUse">
      <stop
         stop-color="#747DEF"
         id="stop5" />
      <stop
         offset="1"
         stop-color="#5E3BE1"
         id="stop6" />
    </linearGradient>
  </defs>
  </g>
</svg>
